<svg width="24" height="16" viewBox="0 0 24 16" fill="none" xmlns="http://www.w3.org/2000/svg">
<path d="M23.8623 9.50388L20.8446 14.677C20.6098 15.0796 20.2735 15.4136 19.8694 15.6457C19.4652 15.8779 19.0073 16 18.5412 16H1.87604C1.10425 16 0.623375 15.1628 1.01225 14.4961L4.02992 9.323C4.26476 8.92042 4.60102 8.58641 5.00517 8.35428C5.40932 8.12215 5.86726 8 6.33333 8H22.9985C23.7703 8 24.2512 8.83721 23.8623 9.50388ZM6.33333 6.66667H20V4.66667C20 3.56208 19.1046 2.66667 18 2.66667H11.3333L8.66667 0H2C0.895417 0 0 0.895417 0 2V13.5853L2.87821 8.65117C3.59225 7.42708 4.91621 6.66667 6.33333 6.66667Z" fill="white"/>
</svg>
