<svg width="24" height="26" viewBox="0 0 24 26" fill="none" xmlns="http://www.w3.org/2000/svg">
<path d="M23.6736 22.115L18.9998 17.2468C18.7889 17.0271 18.5029 16.905 18.2029 16.905H17.4388C18.7326 15.1814 19.5014 13.0134 19.5014 10.655C19.5014 5.04468 15.137 0.498779 9.75071 0.498779C4.36438 0.498779 0 5.04468 0 10.655C0 16.2654 4.36438 20.8113 9.75071 20.8113C12.0149 20.8113 14.0963 20.0105 15.7512 18.6628V19.4587C15.7512 19.7712 15.8683 20.0691 16.0793 20.2888L20.7531 25.157C21.1937 25.616 21.9063 25.616 22.3423 25.157L23.6689 23.7751C24.1096 23.3162 24.1096 22.574 23.6736 22.115ZM9.75071 16.905C6.43641 16.905 3.75027 14.1121 3.75027 10.655C3.75027 7.20288 6.43172 4.40503 9.75071 4.40503C13.065 4.40503 15.7512 7.198 15.7512 10.655C15.7512 14.1072 13.0697 16.905 9.75071 16.905Z" fill="white"/>
</svg>
